<?xml version="1.0" encoding="UTF-8" standalone="no"?>
<!-- Created with Inkscape (http://www.inkscape.org/) -->
<svg id="svg3425" xmlns:rdf="http://www.w3.org/1999/02/22-rdf-syntax-ns#" xmlns="http://www.w3.org/2000/svg" height="107" viewBox="0 0 1279 107" width="1279" version="1.1" xmlns:cc="http://creativecommons.org/ns#" xmlns:dc="http://purl.org/dc/elements/1.1/">
 <metadata id="metadata3431">
  <rdf:RDF>
   <cc:Work rdf:about="">
    <dc:format>image/svg+xml</dc:format>
    <dc:type rdf:resource="http://purl.org/dc/dcmitype/StillImage"/>
    <dc:title/>
   </cc:Work>
  </rdf:RDF>
 </metadata>
 <path id="path3439" fill="#fdfdfd" d="m-41.631-35.544v-53.5h1279v107h-1279v-53.5z"/>
 <path id="path3437" fill="#050505" d="m188.49 102.2c-11.56-3.9966-19.04-10.491-21.96-19.073-2.1408-6.2829-1.9656-18.568 0.33708-23.636 3.8694-8.5175 15.404-15.465 25.704-15.482 11.19-0.018 20.346 3.5777 50.432 19.806 36.243 19.549 51.823 25.265 69.5 25.497 10.524 0.13825 13.406-0.73459 31.334-9.4906l12.334-6.0239-18.834-10.039c-54.091-28.832-74.97-36.151-103.33-36.224-11.536-0.0299-14.519 0.30451-20.5 2.2981-11.04 3.6797-21.393 8.5003-38.307 17.838-34.378 18.978-48.773 26.272-58.021 29.397-9.4174 3.1825-10.119 3.2686-26.672 3.274-18.071 0.0059-24.568-0.96534-39.105-5.8453-9.8499-3.3065-23.23-10.136-32.025-16.346-7.6716-5.4169-19.37-15.82-19.37-17.226 0-0.47316 4.6125 2.7406 10.25 7.1417 24.685 19.271 54.415 28.23 83 25.013 18.907-2.1281 24.507-4.6312 61.75-27.604 46.32-28.571 61.158-34.043 85.77-31.629 28.648 2.8095 49.827 10.246 90.23 31.683 10.725 5.6904 23.899 12.466 29.277 15.058l9.7766 4.7115 11.723-5.5615c14.927-7.0812 19.81-8.1291 34.835-7.4748 14.863 0.64723 20.984 2.2717 35.118 9.3196l11.229 5.5996 11.507-6.6822c14.886-8.6439 22.804-11.45 32.389-11.477 9.6054-0.0275 15.554 1.5993 34.726 9.4969 23.938 9.8609 30.291 11.68 40.918 11.718 10.054 0.03603 15.196-1.5223 22.869-6.9306 5.9611-4.2018 8.0441-8.2859 8.0614-15.806 0.0237-10.33-6.2824-20.702-15.322-25.204-2.3025-1.1465-5.8137-1.7902-9.7061-1.7795-7.3054 0.0202-12.794 3.0825-15.916 8.8809l-1.9805 3.6776 4.2477 3.9222c4.8734 4.5 5.4187 7.5538 1.9332 10.828-3.8051 3.5747-7.9149 2.8926-12.112-2.0103-7.2208-8.4358-7.2135-17.513 0.0224-27.954 8.5373-12.319 29.603-17.735 46.404-11.931 10.516 3.6334 21.463 11.151 26.274 18.042l1.7259 2.4725 1.7259-2.4725c4.8107-6.8917 15.758-14.409 26.274-18.042 16.801-5.8046 37.866-0.38851 46.404 11.931 7.2359 10.441 7.2432 19.519 0.0224 27.954-4.2888 5.0105-8.6729 5.6798-12.252 1.8702-3.2667-3.4772-2.7278-6.2547 2.0734-10.688l4.2477-3.9222-1.9805-3.6776c-3.1226-5.7984-8.6109-8.8607-15.916-8.8809-3.8924-0.0108-7.4036 0.63295-9.7061 1.7795-9.04 4.5014-15.346 14.874-15.322 25.204 0.0172 7.5198 2.1003 11.604 8.0614 15.806 7.6728 5.4083 12.815 6.9666 22.869 6.9306 10.627-0.03809 16.98-1.8575 40.918-11.718 19.172-7.8975 25.121-9.5244 34.726-9.4969 9.2745 0.0266 17.548 2.8408 30.461 10.362l9.5269 5.5485 6.783-3.4568c13.407-6.8326 24.34-9.4745 39.207-9.4745 13.183 0 16.903 0.98387 32.75 8.6617l13.373 6.4789 5.1271-2.1964c7.4038-3.1717 22.835-10.955 40.636-20.495 36.839-19.744 60.228-27.858 88.221-30.603 24.612-2.4137 39.45 3.0581 85.77 31.629 37.244 22.973 42.843 25.476 61.75 27.604 9.1077 1.0251 13.392 1.0223 22.5-0.01485 24.338-2.7715 43.032-10.837 63.595-27.439 9.1458-7.3838 9.4495-5.8368 0.4659 2.3736-16.284 14.883-36.875 25.502-59.474 30.671-5.3231 1.2176-12.005 1.6783-24.338 1.6782-16.528-0.000113-17.264-0.08975-26.5-3.2288-9.9098-3.368-23.501-10.203-53-26.655-20.1-11.21-30.57-16.208-42.244-20.165-7.4625-2.5295-9.5526-2.795-21.756-2.7634-28.788 0.0745-48.255 7.0486-108.49 38.869l-17.993 9.5049 11.721 5.5287c16.571 7.8162 22.683 9.1996 33.995 7.6936 17.444-2.3225 31.683-7.9905 64.029-25.488 10.8-5.8419 22.185-11.749 25.3-13.127 20.422-9.0315 33.335-8.5734 44.914 1.5932 5.4891 4.8195 7.4792 9.8472 7.5056 18.962 0.041 14.202-4.8874 22.307-17.282 28.423-3.9578 1.9527-9.4641 3.8168-12.236 4.1424-10.522 1.2359-21.044-3.0391-26.578-10.798-1.8919-2.6526-2.3814-4.6101-2.3814-9.5233 0-5.4795 0.3347-6.5337 2.9371-9.25 3.4652-3.6169 6.842-3.933 9.0062-0.84316 2.1234 3.0315 2.0192 3.4678-1.6221 6.7937-2.8561 2.6086-3.0612 3.1616-2.0204 5.4459 0.6371 1.3984 2.6301 3.4665 4.4288 4.5959 4.2605 2.675 12.118 2.2548 16.526-0.88393 3.8465-2.739 8.2444-11.393 8.2444-16.222 0-7.2647-7.2542-13.947-15.145-13.95-6.6339-0.003-17.115 4.0538-37.855 14.652-23.672 12.097-35.082 17.124-47 20.71-16.091 4.8412-31.147 5.956-41.068 3.0407-5.8989-1.7333-20.008-8.5416-29.204-14.092l-5.7729-3.4844-8.4908 3.0723c-19.792 7.1616-40.085 10.734-55.463 9.764-11.586-0.73088-20.277-3.09-35.586-9.6585-9.7492-4.1832-11.962-4.8088-13.304-3.7615-1.3971 1.0901-1.4442 1.0437-0.35615-0.35087 1.0992-1.4089 0.28878-1.9885-6.5713-4.6994-18.465-7.2966-24.145-6.6198-56.683 6.7538-20.794 8.5467-31.32 11.218-44.5 11.294-12.504 0.07217-20.312-1.7201-30.255-6.945-3.852-2.0242-9.4204-5.8891-12.374-8.5888l-5.3707-4.9085-5.3707 4.9085c-6.4985 5.9393-17.12 11.682-25.754 13.926-9.3905 2.4398-24.25 2.1929-35.376-0.58764-4.95-1.2372-17.1-5.516-27-9.5086-23.982-9.6717-27.437-10.724-35.297-10.756-8.9245-0.03535-12.869 1.1318-31.532 9.331-25.133 11.042-35.266 13.863-49.849 13.88-14.363 0.01625-33.891-4.0704-52.932-11.077l-10.774-3.9647-6.5729 4.0231c-9.713 5.945-25.316 13.584-31.491 15.418-2.9783 0.88446-8.821 1.5924-12.984 1.5732-18.884-0.08705-35.899-5.643-70.068-22.879-25.586-12.906-36.075-17.088-42.855-17.085-7.8904 0.003-15.145 6.6853-15.145 13.95 0 4.8298 4.3979 13.484 8.2444 16.222 4.4079 3.1387 12.265 3.559 16.526 0.88393 1.7987-1.1294 3.7917-3.1975 4.4288-4.5959 1.0408-2.2843 0.83563-2.8374-2.0204-5.4459-3.6414-3.3259-3.7455-3.7621-1.6221-6.7937 2.2076-3.1517 5.7732-2.8076 8.8547 0.85457 3.1614 3.7571 4.0008 6.8128 3.3023 12.021-1.77 13.053-19.98 21.378-35.24 16.099zm252.44-25.827c3.6101-0.89437 9.4616-2.9298 13.003-4.5232 6.2372-2.8061 6.3721-2.9442 4.2942-4.3996-4.0937-2.8673-15.774-7.2837-23.441-8.8632-8.7086-1.794-21.412-2.048-30.228-0.60421-6.2657 1.026-25.16 9.8504-23.818 11.124 1.2937 1.227 17.395 5.892 25.254 7.3166 10.717 1.9429 26.986 1.9196 34.936-0.05007zm429.86 0.16308c9.1378-1.6081 20.273-4.4609 21.466-5.4992 0.83907-0.73062-13.118-8.6187-20.264-11.452-6.8576-2.7193-25.317-3.3104-35.97-1.1519-7.8066 1.5818-19.402 5.6803-21.377 7.5562-1.2014 1.1408 12.756 7.8227 20.958 10.033 8.5652 2.3083 23.733 2.5298 35.187 0.51396z"/>
</svg>
